<svg width="200" height="25" viewBox="0 0 200 25" fill="none" xmlns="http://www.w3.org/2000/svg">
<g id="Vector">
<path d="M4.69676 24.5V0.500003L0.59668 0.5V24.5L4.69676 24.5Z" fill="#F3BD00"/>
<path d="M9.42125 10.0542V0.500003L24.5054 8.82493C24.1642 9.18068 23.8079 9.59863 23.5041 10.0542H9.42125Z" fill="#F3BD00"/>
<path d="M24.5562 16.1471C24.283 15.8227 23.9636 15.4101 23.6684 14.9459H9.42125V24.5L24.5562 16.1471Z" fill="#F3BD00"/>
<path d="M26.2483 9.74884L31.3177 12.5298L26.2483 15.3108C26.2483 15.3108 24.5584 13.8873 24.5584 12.5298C24.5584 11.1723 26.2483 9.74884 26.2483 9.74884Z" fill="#F3BD00"/>
<path d="M43.2807 18.6531C42.1726 18.6531 41.3081 18.3406 40.6872 17.7156C40.0742 17.0906 39.7677 16.2283 39.7677 15.1286V8.63723H37.8343V6.57234H39.803V3.46313L42.1961 1.70679V6.57234H45.2612V8.63723H42.1961V14.7132C42.1961 15.3461 42.3258 15.8011 42.5852 16.078C42.8445 16.3469 43.2178 16.4814 43.7051 16.4814C44.1766 16.4814 44.6914 16.3549 45.2494 16.1017L45.2612 18.3209C45.0254 18.4079 44.7268 18.483 44.3653 18.5463C44.0037 18.6175 43.6422 18.6531 43.2807 18.6531Z" fill="#1D1D1D"/>
<path d="M52.2641 18.6531C51.0145 18.6531 49.9536 18.3802 49.0812 17.8343C48.2088 17.2805 47.5526 16.5408 47.1125 15.6151C46.6724 14.6895 46.4523 13.6689 46.4523 12.5534C46.4523 11.4537 46.6606 10.4331 47.0771 9.49167C47.5015 8.54229 48.1342 7.78279 48.9751 7.21317C49.8239 6.63563 50.8534 6.34686 52.0637 6.34686C53.3291 6.34686 54.3586 6.63958 55.1524 7.22503C55.954 7.80257 56.5277 8.53438 56.8735 9.42046C57.2272 10.3065 57.404 11.2203 57.404 12.1618C57.404 12.3833 57.3922 12.6009 57.3686 12.8145C57.3529 13.0281 57.3333 13.1784 57.3097 13.2654H49.0223C49.1323 14.2623 49.4545 15.0376 49.9889 15.5914C50.5312 16.1452 51.2935 16.4221 52.2759 16.4221C52.8811 16.4221 53.4273 16.3193 53.9146 16.1136C54.4097 15.9079 54.8773 15.5637 55.3174 15.0811L56.9914 16.5645C56.3391 17.2765 55.6278 17.8027 54.8576 18.1429C54.0953 18.483 53.2308 18.6531 52.2641 18.6531ZM54.9991 11.4854C55.0148 11.2243 54.9913 10.9751 54.9284 10.7377C54.8026 10.0415 54.4883 9.4798 53.9853 9.05258C53.4823 8.62536 52.8339 8.41175 52.0402 8.41175C51.1599 8.41175 50.4683 8.68865 49.9654 9.24245C49.4702 9.79626 49.1559 10.5439 49.0223 11.4854H54.9991Z" fill="#1D1D1D"/>
<path d="M64.1712 18.6531C62.9923 18.6531 61.9824 18.3723 61.1415 17.8106C60.3006 17.2489 59.6679 16.5012 59.2435 15.5677C58.8191 14.6341 58.6069 13.6175 58.6069 12.5178C58.6069 11.4418 58.8152 10.4331 59.2317 9.49167C59.6483 8.5502 60.2731 7.7907 61.1061 7.21317C61.947 6.63563 62.9609 6.34686 64.1476 6.34686C65.3029 6.34686 66.3128 6.63563 67.1773 7.21317C68.0418 7.7907 68.6902 8.64118 69.1224 9.76461L66.8118 10.6665C66.6075 10.0336 66.2696 9.52727 65.798 9.14752C65.3265 8.76777 64.7763 8.57789 64.1476 8.57789C63.456 8.57789 62.8783 8.76381 62.4147 9.13565C61.9588 9.49958 61.6209 9.98218 61.4008 10.5834C61.1886 11.1768 61.0825 11.8216 61.0825 12.5178C61.0825 13.2219 61.1886 13.8707 61.4008 14.464C61.6209 15.0574 61.9588 15.5321 62.4147 15.8881C62.8783 16.2441 63.456 16.4221 64.1476 16.4221C64.7842 16.4221 65.3343 16.2362 65.798 15.8643C66.2696 15.4925 66.5996 14.9941 66.7883 14.3691L69.0045 15.2117C68.6194 16.2955 68.0025 17.1421 67.1537 17.7512C66.3049 18.3525 65.3107 18.6531 64.1712 18.6531Z" fill="#1D1D1D"/>
<path d="M71.0444 1.65932H73.5201V8.16254C73.9366 7.56127 74.4514 7.11032 75.0644 6.80968C75.6774 6.50113 76.3258 6.34686 77.0095 6.34686C77.9526 6.34686 78.7424 6.56838 79.379 7.01142C80.0235 7.45446 80.499 8.03991 80.8055 8.76777C81.112 9.49562 81.2692 10.2986 81.277 11.1768V18.4277H78.8014V11.5447C78.8014 10.6191 78.6206 9.89515 78.2591 9.37299C77.8976 8.84293 77.2846 8.57789 76.4201 8.57789C75.7992 8.57789 75.2687 8.73217 74.8286 9.04071C74.3964 9.34926 74.0702 9.77648 73.8501 10.3224C73.6301 10.8603 73.5201 11.4774 73.5201 12.1737V18.4277H71.0444V1.65932Z" fill="#1D1D1D"/>
<path d="M84.1893 6.57234H86.7003V8.23374C87.0854 7.62456 87.6001 7.15778 88.2446 6.83342C88.8969 6.50905 89.5964 6.34686 90.343 6.34686C91.3804 6.34686 92.2803 6.62376 93.0426 7.17756C93.8049 7.73137 94.3826 8.479 94.7755 9.42046C95.1763 10.354 95.3767 11.3825 95.3767 12.5059C95.3767 13.6294 95.1763 14.6618 94.7755 15.6033C94.3826 16.5368 93.801 17.2805 93.0308 17.8343C92.2685 18.3802 91.3607 18.6531 90.3076 18.6531C89.561 18.6531 88.8694 18.4949 88.2328 18.1785C87.5962 17.8541 87.0854 17.3834 86.7003 16.7663V23.3407H84.1893V6.57234ZM89.7417 16.4221C90.4333 16.4221 91.0149 16.252 91.4865 15.9118C91.9659 15.5716 92.3235 15.1048 92.5592 14.5115C92.795 13.9181 92.9129 13.2496 92.9129 12.5059C92.9129 11.7543 92.795 11.0858 92.5592 10.5004C92.3235 9.91493 91.9659 9.45606 91.4865 9.12378C91.0149 8.78359 90.4333 8.61349 89.7417 8.61349C89.0501 8.61349 88.4568 8.78359 87.9617 9.12378C87.4744 9.45606 87.105 9.91493 86.8535 10.5004C86.602 11.0858 86.4763 11.7543 86.4763 12.5059C86.4763 13.2496 86.602 13.9181 86.8535 14.5115C87.105 15.1048 87.4744 15.5716 87.9617 15.9118C88.4568 16.252 89.0501 16.4221 89.7417 16.4221Z" fill="#1D1D1D"/>
<path d="M101.861 6.34686C102.891 6.34686 103.779 6.5486 104.525 6.95209C105.272 7.35557 105.842 7.9252 106.235 8.66096C106.628 9.38882 106.824 10.2393 106.824 11.2124V18.4277H104.808L104.643 16.5764C104.266 17.2409 103.72 17.7552 103.004 18.1191C102.297 18.4751 101.554 18.6531 100.776 18.6531C99.9669 18.6531 99.2439 18.5028 98.6073 18.2022C97.9707 17.9016 97.4717 17.4664 97.1101 16.8968C96.7486 16.3193 96.5679 15.6389 96.5679 14.8556C96.5679 13.6531 96.9923 12.7828 97.841 12.2449C98.6898 11.7069 99.853 11.4379 101.33 11.4379H104.608C104.592 10.7338 104.498 10.1721 104.325 9.75274C104.152 9.32553 103.869 9.00907 103.476 8.80337C103.091 8.59767 102.557 8.49482 101.873 8.49482C101.205 8.49482 100.619 8.65305 100.116 8.96951C99.6211 9.28597 99.2125 9.71319 98.8902 10.2512L97.0276 8.89831C97.6249 8.0676 98.3087 7.43469 99.0789 6.99956C99.8569 6.56443 100.784 6.34686 101.861 6.34686ZM101.26 16.5645C101.873 16.5645 102.415 16.43 102.887 16.161C103.366 15.892 103.751 15.5321 104.042 15.0811C104.333 14.6302 104.521 14.1317 104.608 13.5858V13.218H101.472C100.686 13.218 100.089 13.3762 99.6801 13.6927C99.2714 14.0012 99.0671 14.4126 99.0671 14.9268C99.0671 15.4253 99.2557 15.8248 99.6329 16.1254C100.01 16.4182 100.552 16.5645 101.26 16.5645Z" fill="#1D1D1D"/>
<path d="M113.851 6.34686C114.88 6.34686 115.768 6.5486 116.515 6.95209C117.261 7.35557 117.831 7.9252 118.224 8.66096C118.617 9.38882 118.814 10.2393 118.814 11.2124V18.4277H116.798L116.633 16.5764C116.255 17.2409 115.709 17.7552 114.994 18.1191C114.287 18.4751 113.544 18.6531 112.766 18.6531C111.956 18.6531 111.233 18.5028 110.597 18.2022C109.96 17.9016 109.461 17.4664 109.1 16.8968C108.738 16.3193 108.557 15.6389 108.557 14.8556C108.557 13.6531 108.982 12.7828 109.831 12.2449C110.679 11.7069 111.843 11.4379 113.32 11.4379H116.597C116.582 10.7338 116.487 10.1721 116.314 9.75274C116.141 9.32553 115.859 9.00907 115.466 8.80337C115.08 8.59767 114.546 8.49482 113.862 8.49482C113.194 8.49482 112.609 8.65305 112.106 8.96951C111.611 9.28597 111.202 9.71319 110.88 10.2512L109.017 8.89831C109.614 8.0676 110.298 7.43469 111.068 6.99956C111.846 6.56443 112.774 6.34686 113.851 6.34686ZM113.249 16.5645C113.862 16.5645 114.405 16.43 114.876 16.161C115.356 15.892 115.741 15.5321 116.031 15.0811C116.322 14.6302 116.511 14.1317 116.597 13.5858V13.218H113.462C112.676 13.218 112.078 13.3762 111.67 13.6927C111.261 14.0012 111.057 14.4126 111.057 14.9268C111.057 15.4253 111.245 15.8248 111.622 16.1254C112 16.4182 112.542 16.5645 113.249 16.5645Z" fill="#1D1D1D"/>
<path d="M125.581 18.6531C124.473 18.6531 123.608 18.3406 122.987 17.7156C122.374 17.0906 122.068 16.2283 122.068 15.1286V8.63723H120.134V6.57234H122.103V3.46313L124.496 1.70679V6.57234H127.561V8.63723H124.496V14.7132C124.496 15.3461 124.626 15.8011 124.885 16.078C125.145 16.3469 125.518 16.4814 126.005 16.4814C126.477 16.4814 126.991 16.3549 127.549 16.1017L127.561 18.3209C127.325 18.4079 127.027 18.483 126.665 18.5463C126.304 18.6175 125.942 18.6531 125.581 18.6531Z" fill="#1D1D1D"/>
<path d="M129.413 1.65932H131.888V8.16254C132.305 7.56127 132.819 7.11032 133.432 6.80968C134.045 6.50113 134.694 6.34686 135.378 6.34686C136.321 6.34686 137.111 6.56838 137.747 7.01142C138.392 7.45446 138.867 8.03991 139.174 8.76777C139.48 9.49562 139.637 10.2986 139.645 11.1768V18.4277H137.169V11.5447C137.169 10.6191 136.989 9.89515 136.627 9.37299C136.266 8.84293 135.653 8.57789 134.788 8.57789C134.167 8.57789 133.637 8.73217 133.197 9.04071C132.764 9.34926 132.438 9.77648 132.218 10.3224C131.998 10.8603 131.888 11.4774 131.888 12.1737V18.4277H129.413V1.65932Z" fill="#1D1D1D"/>
<path d="M146.059 18.6531C145.273 18.6531 144.542 18.5107 143.866 18.2259C143.198 17.9332 142.628 17.5416 142.157 17.0511C141.693 16.5526 141.363 15.9988 141.166 15.3897L143.123 14.5234C143.335 15.1088 143.669 15.6033 144.125 16.0068C144.581 16.4023 145.186 16.6001 145.941 16.6001C146.412 16.6001 146.809 16.521 147.131 16.3628C147.461 16.2045 147.709 15.9988 147.874 15.7457C148.039 15.4925 148.122 15.2235 148.122 14.9387C148.122 14.6143 148.016 14.3533 147.803 14.1555C147.591 13.9498 147.324 13.7876 147.002 13.6689C146.679 13.5502 146.232 13.4158 145.658 13.2654C144.864 13.0597 144.216 12.854 143.713 12.6483C143.218 12.4347 142.789 12.1104 142.428 11.6752C142.074 11.2322 141.897 10.6388 141.897 9.89515C141.897 9.13565 142.09 8.49087 142.475 7.9608C142.86 7.42282 143.375 7.01933 144.019 6.75034C144.664 6.48135 145.375 6.34686 146.153 6.34686C147.127 6.34686 147.988 6.56838 148.735 7.01142C149.481 7.45446 150.075 8.07947 150.515 8.88644L148.629 9.91889C148.039 8.83502 147.186 8.29308 146.07 8.29308C145.512 8.29308 145.064 8.41571 144.726 8.66096C144.396 8.89831 144.231 9.2029 144.231 9.57474C144.231 9.85164 144.33 10.085 144.526 10.2749C144.73 10.4569 144.986 10.6072 145.292 10.7259C145.599 10.8366 146.019 10.9672 146.554 11.1175C147.379 11.3469 148.055 11.5803 148.581 11.8176C149.108 12.0471 149.56 12.4031 149.937 12.8857C150.322 13.3683 150.515 14.0131 150.515 14.82C150.515 15.6587 150.306 16.3667 149.89 16.9443C149.473 17.5139 148.927 17.9411 148.251 18.2259C147.575 18.5107 146.845 18.6531 146.059 18.6531Z" fill="#1D1D1D"/>
<path d="M152.873 1.65932H155.349V8.16254C155.765 7.56127 156.28 7.11032 156.893 6.80968C157.506 6.50113 158.154 6.34686 158.838 6.34686C159.781 6.34686 160.571 6.56838 161.208 7.01142C161.852 7.45446 162.327 8.03991 162.634 8.76777C162.94 9.49562 163.098 10.2986 163.105 11.1768V18.4277H160.63V11.5447C160.63 10.6191 160.449 9.89515 160.088 9.37299C159.726 8.84293 159.113 8.57789 158.249 8.57789C157.628 8.57789 157.097 8.73217 156.657 9.04071C156.225 9.34926 155.899 9.77648 155.679 10.3224C155.459 10.8603 155.349 11.4774 155.349 12.1737V18.4277H152.873V1.65932Z" fill="#1D1D1D"/>
<path d="M170.215 6.34686C171.244 6.34686 172.132 6.5486 172.879 6.95209C173.625 7.35557 174.195 7.9252 174.588 8.66096C174.981 9.38882 175.178 10.2393 175.178 11.2124V18.4277H173.162L172.997 16.5764C172.619 17.2409 172.073 17.7552 171.358 18.1191C170.651 18.4751 169.908 18.6531 169.13 18.6531C168.32 18.6531 167.597 18.5028 166.961 18.2022C166.324 17.9016 165.825 17.4664 165.464 16.8968C165.102 16.3193 164.921 15.6389 164.921 14.8556C164.921 13.6531 165.346 12.7828 166.195 12.2449C167.043 11.7069 168.207 11.4379 169.684 11.4379H172.961C172.946 10.7338 172.851 10.1721 172.678 9.75274C172.505 9.32553 172.223 9.00907 171.83 8.80337C171.445 8.59767 170.91 8.49482 170.226 8.49482C169.558 8.49482 168.973 8.65305 168.47 8.96951C167.975 9.28597 167.566 9.71319 167.244 10.2512L165.381 8.89831C165.978 8.0676 166.662 7.43469 167.432 6.99956C168.21 6.56443 169.138 6.34686 170.215 6.34686ZM169.613 16.5645C170.226 16.5645 170.769 16.43 171.24 16.161C171.72 15.892 172.105 15.5321 172.395 15.0811C172.686 14.6302 172.875 14.1317 172.961 13.5858V13.218H169.826C169.04 13.218 168.442 13.3762 168.034 13.6927C167.625 14.0012 167.421 14.4126 167.421 14.9268C167.421 15.4253 167.609 15.8248 167.986 16.1254C168.364 16.4182 168.906 16.5645 169.613 16.5645Z" fill="#1D1D1D"/>
<path d="M180.353 18.6531C179.583 18.6531 178.994 18.4514 178.585 18.0479C178.184 17.6365 177.984 16.9601 177.984 16.0186V1.65932H180.412V15.3541C180.412 15.7101 180.495 15.983 180.66 16.1729C180.825 16.3549 181.096 16.4458 181.473 16.4458C181.67 16.4458 181.953 16.4182 182.322 16.3628L182.334 18.4277C181.603 18.578 180.943 18.6531 180.353 18.6531Z" fill="#1D1D1D"/>
<path d="M188.394 6.34686C189.423 6.34686 190.311 6.5486 191.058 6.95209C191.804 7.35557 192.374 7.9252 192.767 8.66096C193.16 9.38882 193.357 10.2393 193.357 11.2124V18.4277H191.341L191.176 16.5764C190.799 17.2409 190.252 17.7552 189.537 18.1191C188.83 18.4751 188.087 18.6531 187.309 18.6531C186.5 18.6531 185.777 18.5028 185.14 18.2022C184.503 17.9016 184.004 17.4664 183.643 16.8968C183.281 16.3193 183.1 15.6389 183.1 14.8556C183.1 13.6531 183.525 12.7828 184.374 12.2449C185.222 11.7069 186.386 11.4379 187.863 11.4379H191.14C191.125 10.7338 191.03 10.1721 190.857 9.75274C190.685 9.32553 190.402 9.00907 190.009 8.80337C189.624 8.59767 189.089 8.49482 188.405 8.49482C187.737 8.49482 187.152 8.65305 186.649 8.96951C186.154 9.28597 185.745 9.71319 185.423 10.2512L183.56 8.89831C184.158 8.0676 184.841 7.43469 185.612 6.99956C186.39 6.56443 187.317 6.34686 188.394 6.34686ZM187.792 16.5645C188.405 16.5645 188.948 16.43 189.419 16.161C189.899 15.892 190.284 15.5321 190.575 15.0811C190.865 14.6302 191.054 14.1317 191.14 13.5858V13.218H188.005C187.219 13.218 186.621 13.3762 186.213 13.6927C185.804 14.0012 185.6 14.4126 185.6 14.9268C185.6 15.4253 185.788 15.8248 186.166 16.1254C186.543 16.4182 187.085 16.5645 187.792 16.5645Z" fill="#1D1D1D"/>
<path d="M195.369 17.7208C195.369 17.4394 195.417 17.1774 195.514 16.9348C195.62 16.6825 195.76 16.4642 195.935 16.2798C196.118 16.0954 196.331 15.9499 196.573 15.8432C196.825 15.7364 197.091 15.683 197.371 15.683C197.652 15.683 197.913 15.7364 198.155 15.8432C198.406 15.9499 198.624 16.0954 198.808 16.2798C198.992 16.4642 199.137 16.6825 199.243 16.9348C199.349 17.1774 199.403 17.4394 199.403 17.7208C199.403 18.0119 199.349 18.2788 199.243 18.5213C199.137 18.7639 198.992 18.9774 198.808 19.1618C198.624 19.3461 198.406 19.4868 198.155 19.5839C197.913 19.6906 197.652 19.744 197.371 19.744C197.091 19.744 196.825 19.6906 196.573 19.5839C196.331 19.4868 196.118 19.3461 195.935 19.1618C195.76 18.9774 195.62 18.7639 195.514 18.5213C195.417 18.2788 195.369 18.0119 195.369 17.7208Z" fill="#F3BD00"/>
</g>
</svg>
